<svg width="596" height="596" viewBox="0 0 596 596" fill="none" xmlns="http://www.w3.org/2000/svg">
<path fill-rule="evenodd" clip-rule="evenodd" d="M453.002 44.1247C416.279 21.7917 378.34 8.14966 336.046 2.06966C325.966 0.620661 285.642 -0.573332 276.046 0.292668C264.48 1.33667 242.846 5.05966 229.963 8.22266C200.633 15.4247 173.259 26.6757 145.727 42.8437C135.022 49.1297 111.87 65.8427 103.046 73.6527C101.671 74.8697 98.116 77.9587 95.146 80.5167C81.201 92.5287 57.98 120.845 44.589 142.168C23.122 176.349 7.91601 217.879 2.57401 256.918L1.923 261.668H87.773L90.459 264.354C93.84 267.734 93.66 272.143 90.031 274.839C87.679 276.587 84.699 276.725 44.031 276.97L0.546005 277.232L0 312.668L51.273 312.683C90.391 312.694 103.134 312.995 105.026 313.952C110.826 316.887 110.809 323.969 104.995 326.916C101.847 328.512 97.15 328.665 51.235 328.666L0.923004 328.668L1.554 333.418C5.358 362.078 13.734 391.049 26.133 418.43C33.235 434.113 35.687 438.668 37.027 438.668C37.44 438.668 38.959 433.831 40.402 427.918C52.582 378.012 57.075 360.38 58.224 357.983C59.962 354.356 62.519 353.933 64.493 356.946C65.358 358.267 69.896 374.832 74.577 393.758C85.778 439.043 86.213 440.668 87.117 440.668C88.185 440.668 89.272 436.992 94.515 415.668C99.931 393.635 101.105 390.668 104.407 390.668C105.724 390.668 107.362 391.344 108.047 392.17C108.733 392.995 113.537 410.883 118.724 431.92C132.766 488.874 133.461 491.487 134.546 491.456C135.708 491.423 139.66 477.66 147.127 447.637C147.61 445.695 148.664 443.22 149.469 442.137C150.831 440.306 151.13 440.276 153.74 441.704C156.258 443.082 156.985 444.828 160.825 458.704C167.484 482.765 173.989 507.023 177.307 520.168C178.973 526.768 180.504 532.363 180.708 532.601C181.789 533.862 183.499 529.109 189.498 508.168C193.122 495.518 196.604 484.155 197.236 482.918C198.519 480.403 202.17 479.907 203.916 482.011C204.81 483.088 219.198 532.077 224.026 550.483C224.649 552.856 225.649 554.634 226.25 554.433C227.434 554.039 229.05 549.339 235.057 528.82C237.206 521.478 239.488 514.84 240.128 514.07C241.863 511.978 244.812 512.375 246.441 514.918C247.233 516.155 251.556 529.768 256.046 545.168C260.537 560.568 265.75 577.941 267.632 583.774L271.053 594.379L277.799 595.017C286.433 595.832 309.585 595.839 318.162 595.029L324.779 594.404L328.521 582.286C330.579 575.621 333.095 567.468 334.113 564.168C339.859 545.532 347.046 521.215 347.046 520.407C347.046 519.892 347.772 517.94 348.66 516.069C350.36 512.487 353.816 511.448 355.81 513.918C356.365 514.606 358.922 521.918 361.492 530.168C368.786 553.584 369.16 554.668 369.958 554.668C370.371 554.668 372.872 546.681 375.516 536.918C383.335 508.048 390.139 484.362 391.162 482.452C392.26 480.399 396.312 480.075 397.832 481.918C398.399 482.606 402.09 494.193 406.034 507.668C409.979 521.143 413.595 532.571 414.071 533.063C414.567 533.576 415.227 532.724 415.62 531.063C416.863 525.806 427.935 483.507 433.13 464.168C438.56 443.953 439.946 440.668 443.046 440.668C444.121 440.668 445.633 441.681 446.408 442.918C447.182 444.155 450.669 455.856 454.155 468.918C457.642 481.981 460.805 492.668 461.183 492.668C461.562 492.668 463.07 487.606 464.535 481.418C472.357 448.377 486.179 394.427 487.271 392.679C488.943 390.002 492.65 390.125 494.451 392.918C495.249 394.156 498.44 405.068 501.542 417.168C506.646 437.077 508.262 441.905 509.386 440.601C509.591 440.363 514.293 421.761 519.834 399.265C527.463 368.291 530.411 357.859 531.977 356.292L534.046 354.224L536.072 356.249C537.58 357.758 540.535 368.211 547.651 397.221C552.906 418.642 557.556 437.068 557.984 438.168C558.618 439.794 559.795 438.113 564.286 429.168C575.059 407.712 583.752 384.012 588.102 364.24C590.073 355.283 594.045 332.344 594.046 329.918C594.046 328.934 582.67 328.668 540.496 328.668C493.826 328.668 486.557 328.467 483.915 327.1C481.94 326.079 481.082 325.016 481.453 324.048C481.775 323.212 481.592 322.831 481.035 323.175C480.455 323.533 480.046 322.342 480.046 320.3C480.046 317.724 480.735 316.272 482.681 314.741C485.274 312.701 486.191 312.668 540.079 312.668H594.843L595.551 305.621C595.94 301.745 595.936 293.641 595.542 287.612L594.826 276.65L568.048 276.909C542.917 277.152 541.14 277.051 539.158 275.263C535.992 272.407 536.263 266.429 539.681 263.741C542.192 261.765 543.528 261.668 568.181 261.668C582.407 261.668 594.046 261.473 594.046 261.235C594.046 260.996 592.907 254.584 591.514 246.985C583.74 204.561 568.818 167.977 544.681 132.168C521.451 97.7047 487.511 65.1107 453.002 44.1247ZM282.348 93.8917C272.901 83.3207 276.512 66.5977 289.546 60.5637C299.234 56.0777 311.162 59.8757 316.569 69.1677C319.919 74.9237 320.507 79.5687 318.682 85.8477C314.153 101.428 293.224 106.061 282.348 93.8917ZM199.898 139.282C196.879 130.611 196.425 126.696 198.081 123.602C199.776 120.435 203.342 121.366 210.012 126.719C220.795 135.373 232.279 140.202 249.111 143.16C257.283 144.596 257.864 144.575 261.763 142.691C264.011 141.605 269.832 139.497 274.698 138.007C282.557 135.601 285.167 135.296 298.046 135.274C313.979 135.248 319.666 136.338 331.653 141.716C338.283 144.691 338.559 144.727 345.98 143.608C362.277 141.149 377.546 134.678 387.529 126C394.479 119.958 399.046 120.403 399.046 127.121C399.046 135.207 390.671 154.915 383.977 162.582C382.381 164.41 381.374 166.415 381.74 167.037C382.106 167.659 383.361 169.743 384.53 171.668C391.476 183.112 395.701 200.108 394.671 212.466C394.337 216.479 392.906 223.212 391.491 227.428C388.818 235.388 381.469 247.558 377.769 250.15L375.638 251.642L377.909 255.405C382.422 262.884 386.331 272.33 388.771 281.657C391.976 293.903 392.363 314.317 389.653 328.168C384.697 353.496 372.69 380.228 355.523 404.156C352.511 408.354 350.046 411.987 350.046 412.229C350.046 412.47 366.956 412.668 387.623 412.668H425.2L428.123 415.591C431.23 418.699 431.678 420.619 430.016 423.723C427.458 428.504 425.87 428.667 381.846 428.681L340.546 428.694L337.261 436.514C330.337 452.997 312.858 475.307 302.609 480.744C298.249 483.057 298.106 483.067 294.46 481.329C288.622 478.544 282.711 473.206 275.866 464.536C268.76 455.534 260.065 440.942 257.413 433.569L255.651 428.668H172.199L169.123 426.079C165.285 422.85 164.893 417.821 168.235 414.707C170.357 412.73 171.565 412.668 208.235 412.668C229.031 412.668 246.046 412.484 246.046 412.259C246.046 412.034 242.478 406.752 238.118 400.522C224.347 380.846 214.122 358.851 208.199 336.168C205.829 327.094 205.586 324.409 205.576 307.168C205.565 290.235 205.821 287.243 207.928 279.668C210.024 272.131 216.564 257.288 219.264 253.94C219.969 253.066 219.062 251.358 216.116 248.01C211.073 242.281 205.628 231.407 203.441 222.694C202.229 217.867 201.933 213.286 202.278 204.694C202.791 191.94 205.118 183.661 211.408 172.218L214.784 166.077L212.37 163.122C208.246 158.074 202.846 147.752 199.898 139.282ZM294.414 186.284C284.152 170.6 272.858 164.256 241.571 156.599C234.985 154.987 229.007 153.668 228.286 153.668C225.956 153.668 228.869 157.718 236.699 165.369C244.01 172.512 246.109 173.77 264.896 182.261C275.096 186.872 280.332 194.415 280.252 204.385C280.166 215.255 271.795 223.168 260.382 223.168C255.142 223.168 253.575 222.716 249.93 220.154C244.059 216.028 241.743 211.732 241.649 204.793C241.588 200.355 242.158 198.153 244.321 194.462L247.069 189.772L242.528 187.763C240.031 186.658 235.295 183.866 232.004 181.557C228.713 179.249 225.839 177.542 225.617 177.764C225.395 177.986 224.065 180.456 222.66 183.253C214.959 198.588 215.241 217.906 223.368 231.774C230.714 244.309 239.843 250.98 257.01 256.359C263.355 258.347 270.796 261.143 273.546 262.571C279.729 265.783 289.73 275.499 294.008 282.451C295.773 285.321 297.612 287.668 298.095 287.668C298.577 287.668 300.874 284.856 303.199 281.418C311.958 268.467 320.754 262.28 338.046 256.907C351.102 252.851 357.435 249.421 364.631 242.511C371.842 235.587 376.419 227.246 378.539 217.168C380.377 208.429 380.377 205.907 378.539 197.168C377.3 191.277 371.6 177.668 370.372 177.668C370.166 177.668 367.75 179.214 365.004 181.103C362.257 182.993 357.527 185.753 354.494 187.237C349.572 189.646 349.13 190.11 350.392 191.552C358.691 201.042 355.85 215.597 344.605 221.2C338.889 224.049 334.517 224.309 329.264 222.115C317.596 217.241 313.572 205.288 319.512 193.147C322.623 186.789 325.675 184.513 337.023 180.089C346.478 176.403 354.249 171.38 360.226 165.092C368.42 156.472 370.828 152.77 367.382 154.092C366.467 154.444 364.263 154.962 362.483 155.245C353.444 156.682 331.215 162.868 325.525 165.531C315.194 170.365 306.626 177.789 301.42 186.418C300.01 188.755 298.502 190.668 298.069 190.668C297.637 190.668 295.992 188.695 294.414 186.284ZM288.903 225.047C288.903 218.611 290.252 215.919 294.375 214.126C296.333 213.274 297.12 212.847 297.911 212.84C298.707 212.833 299.507 213.251 301.512 214.089C305.169 215.617 308.046 220.011 308.046 224.067C308.046 228.334 303.205 242.016 300.579 245.168L298.08 248.168L296.091 245.668C292.596 241.275 288.903 230.682 288.903 225.047ZM122.679 275.778C119.542 273.175 119.977 266.75 123.446 264.433C127.256 261.889 134.046 265.612 134.046 270.246C134.046 275.439 126.623 279.052 122.679 275.778ZM466.14 275.898C462.693 273.336 462.179 268.535 465.046 265.668C469.645 261.069 478.055 265.801 476.474 272.099C475.992 274.019 474.682 275.34 472.254 276.354C469.015 277.708 468.527 277.671 466.14 275.898ZM504.89 274.724C502.5 271.773 502.56 269.555 505.119 266.303C509.148 261.18 517.046 263.74 517.046 270.168C517.046 276.468 508.804 279.557 504.89 274.724ZM294.832 309.326C285.005 294.961 271.63 285.206 256.322 281.239C250.916 279.839 240.046 279.048 240.046 280.055C240.046 280.268 243.308 283.055 247.296 286.247C266.606 301.707 282.272 317.943 292.757 333.36L298.328 341.552L303.797 333.36C306.805 328.855 311.229 322.86 313.629 320.04C324.3 307.498 346.256 287.36 354.29 282.744C355.799 281.877 357.036 280.831 357.04 280.418C357.051 279.017 347.576 279.695 340.136 281.627C325.335 285.47 314.146 293.024 304.154 305.918C301.277 309.63 298.517 312.668 298.021 312.668C297.524 312.668 296.089 311.164 294.832 309.326ZM136.046 320.241C136.046 317.729 136.75 316.259 138.681 314.741C141.099 312.838 142.639 312.668 157.431 312.672C171.483 312.675 173.944 312.918 176.653 314.57C179.751 316.459 181.632 320.188 179.996 321.199C179.521 321.492 179.374 322.359 179.668 323.126C179.979 323.935 179.055 325.271 177.467 326.312C175.298 327.733 172.075 328.187 161.915 328.504C141.14 329.151 136.046 327.524 136.046 320.241ZM417.459 325.362C414.22 321.596 414.307 317.394 417.681 314.741C420.057 312.871 421.669 312.668 434.104 312.668C447.479 312.668 447.985 312.746 450.969 315.257C454.361 318.111 454.86 321.061 452.517 324.407C450.29 327.586 445.927 328.417 432.149 328.285C420 328.169 419.848 328.139 417.459 325.362ZM139.046 369.161C139.046 364.31 139.969 362.612 143.446 361.073C149.561 358.366 156.046 362.275 156.046 368.668C156.046 372.954 153.06 376.315 148.43 377.241C144.075 378.112 139.046 373.782 139.046 369.161ZM442.075 374.851C437.403 370.179 438.579 363.01 444.403 360.66C447.695 359.331 449.275 359.51 452.707 361.603C456.587 363.969 457.536 366.652 456.067 371.104C454.669 375.34 453.517 376.308 448.825 377.184C445.548 377.797 444.742 377.518 442.075 374.851ZM180.84 373.478C177.416 373.877 175.615 370.932 177.021 367.233C178.188 364.165 181.917 363.763 184.344 366.445C186.588 368.924 184.533 373.048 180.84 373.478ZM413.944 373.293C409.137 373.545 407.433 371.411 409.049 367.159C409.773 365.257 410.716 364.668 413.043 364.668C418.908 364.668 419.778 372.987 413.944 373.293Z" fill="white"/>
</svg>
